<svg class="svg-icon" style="width: 1.3em; height: 1.3em;vertical-align: middle;fill: currentColor;overflow: hidden;" viewBox="0 0 1024 1024" version="1.1" xmlns="http://www.w3.org/2000/svg"><path d="M183.488 512c0-176.736 143.264-320 320-320s320 143.264 320 320-143.264 320-320 320-320-143.264-320-320zM416 864h192a32 32 0 0 1 0 64h-192a32 32 0 0 1 0-64z m64 96h64a32 32 0 0 1 0 64h-64a32 32 0 0 1 0-64z m1.76-960a32 32 0 0 1 32 32v64a32 32 0 1 1-64 0V32a32 32 0 0 1 32-32z m332.48 104.384a32 32 0 0 1 7.04 44.672L783.68 200.832a32 32 0 0 1-51.776-37.6l37.6-51.776a32 32 0 0 1 44.704-7.072z m193.216 235.616a32 32 0 0 1-20.544 40.32l-60.864 19.776a32 32 0 1 1-19.776-60.864l60.864-19.776a32 32 0 0 1 40.32 20.544z m0 316.416a32 32 0 0 1-40.32 20.544l-60.864-19.776a32 32 0 0 1 19.776-60.864l60.864 19.776a32 32 0 0 1 20.544 40.32z m-973.888 0a32 32 0 0 1 20.544-40.32l60.864-19.776a32 32 0 1 1 19.776 60.864l-60.864 19.776a32 32 0 0 1-40.32-20.544z m0-316.416a32 32 0 0 1 40.32-20.544l60.864 19.776a32 32 0 1 1-19.776 60.864l-60.864-19.776a32 32 0 0 1-20.544-40.32z m178.752-235.616a32 32 0 0 1 44.704 7.04l37.6 51.808A32 32 0 0 1 242.88 200.832L205.248 149.056a32 32 0 0 1 7.072-44.672zM247.488 512a256 256 0 1 0 512 0 256 256 0 0 0-256-256 256 256 0 0 0-256 256z"  /></svg>